<?xml version="1.0" encoding="utf-8"?>
<!-- Generator: Adobe Illustrator 17.0.0, SVG Export Plug-In . SVG Version: 6.00 Build 0)  -->
<!DOCTYPE svg PUBLIC "-//W3C//DTD SVG 1.1//EN" "http://www.w3.org/Graphics/SVG/1.1/DTD/svg11.dtd">
<svg version="1.1" id="Layer_1" xmlns="http://www.w3.org/2000/svg" xmlns:xlink="http://www.w3.org/1999/xlink" x="0px" y="0px"
	 width="1432.062px" height="639px" viewBox="0 0 1432.062 639" enable-background="new 0 0 1432.062 639" xml:space="preserve">
<g opacity="0.35">
	<path fill="#B8AAFF" d="M39.633,92.751C16.188,92.751,3,77.365,3,50.99S16.188,9.229,39.633,9.229
		c24.178,0,36.633,15.385,36.633,41.761S63.077,92.751,39.633,92.751z M63.811,629.051H14.723V168.214h49.088V629.051z"/>
	<path fill="#B8AAFF" d="M586.844,629.051h-49.088v-282.07c0-79.859-25.643-139.204-137.738-139.204
		c-81.324,0-150.926,48.355-150.926,145.798v275.477h-49.088v-461.57h49.088v71.067h1.465
		c32.236-49.82,92.314-78.394,156.787-78.394c117.225,0,179.5,61.542,179.5,172.173V629.051z"/>
	<path fill="#B8AAFF" d="M961.874,592.42c-38.098,29.306-76.929,43.959-119.422,43.959c-71.8,0-117.957-47.623-117.957-137.006
		V217.302l2.931-5.129h-58.612v-44.691h58.612l-2.931-5.129V82.494l49.088-26.375v106.234l-2.931,5.129H916.45v44.691H770.652
		l2.931,5.129v279.14c0,59.345,26.375,93.047,72.532,93.047c31.504,0,56.414-10.258,81.324-32.237L961.874,592.42z"/>
	<path fill="#B8AAFF" d="M1213.454,636.379c-139.203,0-208.805-98.176-208.805-238.112c0-139.204,69.602-238.111,208.072-238.111
		c139.937,0,209.538,97.442,209.538,238.111C1422.26,537.47,1351.193,636.379,1213.454,636.379z M1213.454,207.777
		c-114.293,0-159.718,85.72-159.718,190.489c0,104.037,46.89,190.489,159.718,190.489c113.562,0,159.719-85.72,159.719-190.489
		C1373.173,293.497,1326.283,207.777,1213.454,207.777z"/>
</g>
<g>
	<path fill="#FFE6FF" d="M44.083,86.243c-23.445,0-36.633-15.386-36.633-41.761S20.638,2.721,44.083,2.721
		c24.178,0,36.633,15.385,36.633,41.761S67.527,86.243,44.083,86.243z M68.261,622.543H19.173V161.706h49.088V622.543z"/>
	<path fill="#FFE6FF" d="M591.294,622.543h-49.088v-282.07c0-79.859-25.643-139.204-137.738-139.204
		c-81.324,0-150.926,48.355-150.926,145.798v275.477h-49.088v-461.57h49.088v71.067h1.465
		c32.236-49.82,92.314-78.394,156.787-78.394c117.225,0,179.5,61.542,179.5,172.173V622.543z"/>
	<path fill="#FFE6FF" d="M966.324,585.911c-38.098,29.306-76.929,43.959-119.422,43.959c-71.8,0-117.957-47.623-117.957-137.006
		V210.793l2.931-5.129h-58.612v-44.691h58.612l-2.931-5.129V75.985l49.088-26.375v106.234l-2.931,5.129H920.9v44.691H775.103
		l2.931,5.129v279.14c0,59.345,26.375,93.047,72.532,93.047c31.504,0,56.414-10.258,81.324-32.237L966.324,585.911z"/>
	<path fill="#FFE6FF" d="M1217.904,629.87c-139.203,0-208.805-98.176-208.805-238.112c0-139.204,69.602-238.111,208.072-238.111
		c139.937,0,209.538,97.442,209.538,238.111C1426.71,530.962,1355.644,629.87,1217.904,629.87z M1217.904,201.269
		c-114.293,0-159.718,85.72-159.718,190.489c0,104.037,46.89,190.489,159.718,190.489c113.562,0,159.719-85.72,159.719-190.489
		C1377.623,286.989,1330.733,201.269,1217.904,201.269z"/>
</g>
</svg>
